<svg width="1033" height="1059" viewBox="0 0 1033 1059" fill="none" xmlns="http://www.w3.org/2000/svg">
<path d="M561.699 5.37763C561.085 8.10786 558.364 16.0504 555.556 23.1655C548.447 41.2016 536.511 74.8745 535.282 80.0868L534.316 84.4717L529.753 83.9753L525.101 83.3961L523.521 92.0005C522.644 96.6336 521.941 103.087 522.029 106.231L522.117 111.857L519.747 111.36C518.431 111.112 516.5 110.698 515.447 110.368C513.779 109.954 513.428 110.368 512.112 114.339C509.83 121.619 507.899 135.602 508.513 140.814C509.04 145.199 508.952 145.612 507.46 145.612C506.495 145.612 503.95 144.868 501.668 143.875C499.473 142.965 497.192 142.468 496.753 142.717C494.208 144.206 493.067 162.821 495.173 171.177C495.7 173.494 495.963 175.645 495.7 175.893C495.348 176.141 492.716 175.562 489.819 174.569C481.657 171.756 481.482 172.005 482.096 183.505C482.447 190.123 483.237 195.336 484.729 200.052C485.87 203.775 486.572 207.084 486.221 207.25C485.87 207.415 483.237 207.25 480.428 206.836C477.62 206.339 474.724 206.008 474.021 206.008C473.056 206.008 472.881 208.077 473.319 217.757C473.67 227.519 474.109 230.829 476.128 236.455C477.357 240.261 478.234 243.57 478.059 243.735C477.795 243.984 475.075 243.735 471.915 243.156C463.226 241.667 463.051 241.75 463.577 251.347C463.928 257.469 464.631 261.11 466.825 266.818C468.317 270.872 469.545 274.678 469.545 275.34C469.545 276.25 468.141 276.333 462.524 275.836L455.503 275.257V278.484C455.503 283.531 459.628 297.678 462.963 303.966C464.631 307.11 465.772 309.923 465.508 310.171C465.245 310.419 462.524 310.502 459.365 310.419C454.625 310.171 453.66 310.419 453.133 311.578C452.343 313.646 456.819 329.779 460.418 338.135C462.085 341.858 463.402 345.333 463.402 345.83C463.402 346.491 461.559 346.74 457.522 346.491L451.554 346.243L451.29 348.56C450.851 351.869 455.854 367.175 459.979 375.531C461.822 379.337 463.402 382.564 463.402 382.729C463.402 382.895 461.647 383.06 459.54 383.06C457.346 383.06 454.538 383.474 453.309 383.887C451.29 384.632 451.027 385.046 451.554 386.949C452.607 391.168 458.399 404.323 463.928 415.244C467 421.366 469.545 426.413 469.545 426.578C469.545 426.661 467.439 427.24 464.806 427.819C457.873 429.226 457.873 429.309 459.54 434.024C461.559 439.733 470.511 456.032 475.162 462.651L479.112 468.111L475.426 468.69C467.966 469.848 467.264 471.503 470.686 478.618C473.495 484.162 481.482 496.323 487.011 503.19C489.468 506.417 491.048 508.982 490.521 509.313C489.117 510.14 483.939 509.892 482.008 508.899C479.2 507.493 477.181 507.824 473.934 510.057C472.266 511.216 470.511 512.126 469.984 512.126C469.282 512.126 468.756 508.734 468.317 501.536C467.702 491.194 466.474 479.197 465.508 474.647C464.894 471.834 463.226 471.834 458.224 474.482C456.117 475.64 454.274 476.467 454.186 476.384C454.011 476.219 453.484 468.856 452.958 460.003C452.08 444.78 451.29 439.65 449.447 436.92C448.569 435.679 447.077 436.424 437.862 442.05L435.58 443.456L435.054 431.708C434.351 417.312 432.07 405.978 429.788 405.564C428.998 405.398 426.014 406.639 423.293 408.211C419.695 410.362 418.115 410.859 417.676 410.114C417.413 409.618 416.886 404.654 416.623 399.193C416.096 388.686 413.551 377.103 411.357 375.035C410.216 373.959 409.338 374.125 403.897 376.276C400.474 377.682 397.49 378.592 397.227 378.344C396.963 378.013 396.7 376.11 396.7 374.042C396.7 371.891 395.91 367.423 394.857 364.031C393.189 358.074 386.432 342.52 385.554 342.52C385.378 342.52 382.658 344.175 379.674 346.243C372.477 351.042 371.248 351.042 371.248 346.409C371.248 339.542 363.437 319.355 360.365 318.279C359.575 317.948 356.767 318.858 354.046 320.265C351.325 321.588 348.956 322.581 348.868 322.498C348.868 322.333 348.254 319.851 347.639 316.873C346.235 310.006 340.091 295.113 337.546 292.3L335.615 290.232L330.7 292.797C324.996 295.858 324.645 295.61 323.065 288.495C321.134 280.304 314.376 266.156 311.919 265.246C311.304 264.998 308.759 266.074 306.214 267.646C303.756 269.218 301.299 270.541 300.685 270.541C300.158 270.541 299.017 268.059 298.227 264.915C296.823 259.124 290.767 246.217 286.73 240.095C283.746 235.793 281.991 235.71 276.461 239.516C274.179 241.088 272.073 242.412 271.81 242.412C271.546 242.412 270.932 240.426 270.318 238.027C269.001 232.235 262.331 219.411 258.996 216.433L256.363 214.034L252.589 216.681C249.079 219.081 248.727 219.163 247.762 217.84C247.148 217.095 246.621 215.937 246.621 215.275C246.621 213.786 240.302 201.872 237.845 198.562C235.65 195.584 234.685 195.501 232.052 197.818C229.946 199.638 228.19 199.39 228.19 197.156C228.19 195.501 224.153 188.634 218.536 180.775C216.254 177.548 212.129 171.095 209.321 166.296C206.512 161.497 203.353 156.451 202.299 155.127C201.246 153.72 199.842 151.156 199.228 149.335C197.648 144.62 188.081 126.666 185.361 123.357C184.132 121.785 182.991 120.875 182.816 121.371C181.938 123.771 194.313 178.044 196.682 182.098C197.385 183.422 197.297 184.167 196.068 185.408C194.576 186.98 194.576 187.311 197.385 194.839C199.754 201.21 200.105 202.865 199.228 204.354C197.999 206.505 199.667 212.048 203.792 219.411C206.863 224.872 206.6 226.692 202.738 226.692C201.246 226.692 199.842 227.188 199.579 227.768C199.052 229.174 204.318 240.012 208.794 246.797C210.813 249.692 212.393 252.671 212.393 253.415C212.393 254.822 210.637 255.649 207.565 255.649C204.055 255.649 203.265 257.552 205.196 261.771C207.214 266.074 213.007 274.264 217.834 279.725L221.169 283.613L217.044 284.606C209.233 286.426 208.97 287.667 214.674 296.685C219.589 304.545 222.222 307.937 226.698 312.405L230.121 315.88L225.47 318.196C218.799 321.671 218.448 322.498 222.222 327.793C223.89 330.193 228.541 335.653 232.491 339.873C236.528 344.092 239.6 348.063 239.424 348.808C239.249 349.553 237.406 350.794 235.212 351.538C230.736 353.11 229.946 355.013 231.964 358.819C233.807 362.046 245.041 373.546 251.185 378.344C253.993 380.578 256.275 382.729 256.275 383.06C256.275 383.474 254.52 384.963 252.326 386.369C249.956 387.941 248.376 389.596 248.376 390.506C248.376 392.161 263.56 406.639 271.898 412.844C274.443 414.747 276.286 416.568 276.023 416.898C275.671 417.147 273.39 418.553 270.932 419.96C263.911 423.848 264.174 424.841 274.531 434.355C279.445 438.823 285.764 443.953 288.661 445.773L293.927 449.082L289.977 452.143C287.783 453.798 286.116 455.453 286.291 455.784C286.905 457.273 301.299 468.856 309.637 474.647C314.552 478.122 318.589 481.183 318.589 481.597C318.589 481.928 316.833 483.417 314.639 484.823C312.357 486.313 310.69 488.05 310.69 488.96C310.69 491.359 332.105 505.672 340.969 509.147C343.69 510.223 344.041 510.637 343.251 512.043C342.724 512.87 341.232 514.36 339.916 515.27L337.546 516.842L340.881 520.482C342.637 522.468 344.304 524.867 344.567 525.86C345.094 527.68 343.69 531.155 342.461 531.155C342.022 531.155 339.828 528.673 337.458 525.529C330.437 516.345 317.887 504.928 316.395 506.5C316.307 506.665 315.517 507.824 314.815 509.23C314.025 510.554 312.708 512.539 311.831 513.615L310.251 515.435L306.565 510.306C302.177 503.935 289.626 492.269 287.257 492.269C286.116 492.269 284.711 493.593 283.132 496.406C281.815 498.64 280.499 500.543 280.147 500.543C279.796 500.543 277.076 497.978 274.179 494.917C269.352 489.87 254.52 477.377 253.379 477.377C253.116 477.377 251.711 479.197 250.132 481.514C248.552 483.748 246.797 485.651 246.182 485.651C245.568 485.651 244.076 484.244 242.847 482.507C238.81 477.046 223.714 464.553 222.661 465.877C222.486 466.043 221.081 468.277 219.502 470.759C217.834 473.241 216.43 475.392 216.342 475.557C216.166 475.723 213.182 473.075 209.584 469.683C203.704 464.057 191.855 455.866 189.661 455.866C189.135 455.866 187.292 457.935 185.536 460.417C183.781 462.899 182.289 464.967 182.201 464.967C182.113 464.967 179.217 462.402 175.794 459.258C169.475 453.384 158.329 445.938 155.872 445.938C155.082 445.938 153.502 447.841 152.185 450.24C148.411 457.356 148.587 457.273 143.584 452.722C136.914 446.6 119.273 437.665 116.202 438.823C115.499 439.071 114.358 440.726 113.569 442.629C111.901 446.517 110.497 446.766 106.723 443.704C103.563 441.14 91.8905 435.927 85.2203 434.024C80.6565 432.783 80.5687 432.783 78.7257 434.686L76.8826 436.672L72.8454 434.769C70.6512 433.694 64.5076 431.708 59.2417 430.219C53.888 428.812 45.287 426.33 39.9333 424.675C29.1381 421.449 9.56643 416.65 3.51061 415.74C-7.43656e-06 415.244 -0.263304 415.327 0.877648 416.402C1.57977 417.064 11.0584 422.773 21.9414 428.978C44.0583 441.719 70.4757 458.514 72.4065 461.161C73.1087 462.071 73.723 463.892 73.723 465.05C73.723 467.863 75.8294 469.6 88.4676 476.964L98.2096 482.672L96.1032 485.32C94.8745 486.892 94.1724 488.546 94.4357 489.291C95.05 490.863 105.055 496.737 114.358 501.039C119.449 503.439 121.029 504.514 120.59 505.507C118.132 511.05 118.132 511.216 119.8 513.036C120.765 513.946 123.837 515.849 126.558 517.173C131.122 519.324 131.56 519.82 131.824 522.633C132.087 525.446 132.614 526.025 136.826 528.424C139.459 529.914 144.55 532.313 148.236 533.719C151.922 535.126 155.082 536.45 155.257 536.615C155.433 536.698 153.677 539.097 151.308 541.91C147.885 545.964 147.271 547.288 148.06 548.363C149.026 549.935 164.648 555.975 173.249 558.126C176.145 558.871 178.866 559.781 179.217 560.029C179.568 560.36 178.691 562.263 177.286 564.248C175.794 566.317 174.653 568.633 174.653 569.461C174.653 571.612 184.834 575.831 197.911 579.141C203.704 580.63 208.794 582.119 209.145 582.45C209.584 582.781 208.794 584.932 207.39 587.166C205.371 590.723 205.196 591.551 206.161 592.626C208.355 595.108 215.025 596.598 237.669 599.493L241.355 599.907L238.985 603.961C237.055 607.27 236.791 608.18 237.757 609.256C239.951 611.738 249.956 613.889 265.315 615.13C271.195 615.626 272.161 615.875 271.634 617.033C271.283 617.86 270.844 619.432 270.581 620.59C270.23 622.493 270.493 622.907 273.038 623.652C278.041 625.141 288.31 626.299 300.948 626.878L313.06 627.375L312.357 630.27C312.006 631.925 312.006 633.828 312.533 634.655C314.288 637.799 323.416 639.868 343.953 641.77C350.36 642.432 350.535 642.515 351.238 644.997C351.764 646.9 352.993 648.058 356.065 649.63C362.033 652.691 365.894 653.519 378.094 654.429C389.942 655.339 396.086 657.159 397.139 660.138C397.49 661.296 399.07 662.206 402.229 663.116C406.969 664.357 430.139 667.666 434.176 667.666C435.405 667.666 438.125 668.576 440.232 669.735C444.357 671.969 451.992 674.12 475.075 679.249C483.676 681.235 490.521 682.889 490.434 683.055C490.258 683.138 482.71 682.641 473.758 681.897C464.718 681.152 457.083 680.821 456.732 681.152C456.381 681.4 456.644 682.228 457.258 682.972C459.189 685.206 457.434 685.454 449.886 683.965C445.937 683.138 437.95 682.31 432.245 681.979L421.977 681.483L422.591 684.048C422.854 685.537 423.03 686.695 422.766 686.695C422.591 686.695 420.66 685.951 418.554 685.123C414.604 683.469 397.841 680.904 390.995 680.904H387.221L388.099 683.882C388.538 685.537 388.713 687.026 388.45 687.274C388.187 687.605 385.115 686.943 381.604 686.033C375.461 684.296 367.825 683.055 358.785 682.31L354.573 681.897V686.364C354.573 688.846 354.397 690.832 354.309 690.832C354.134 690.832 351.852 690.17 349.219 689.26C342.285 687.026 328.77 684.71 326.137 685.372C324.03 685.868 323.855 686.282 323.855 690.005C323.855 694.803 323.679 694.886 316.307 692.404C309.022 690.005 294.892 689.26 291.82 691.163C289.889 692.321 289.626 693.149 289.626 697.037C289.626 702.249 289.889 702.084 281.727 700.264C278.568 699.519 272.161 698.94 267.334 698.857C259.435 698.774 258.557 698.94 257.153 700.595C256.012 701.918 255.749 703.325 256.012 706.138C256.275 708.206 256.188 709.861 255.836 709.861C255.398 709.861 251.711 709.282 247.586 708.537C240.302 707.213 231.701 707.296 227.839 708.703C226.435 709.199 226.259 709.861 226.786 713.584L227.313 717.886L215.201 718.465C200.895 719.21 198.877 719.872 198.526 724.091C198.262 726.904 197.999 727.235 195.015 727.649C179.48 730.131 129.981 747.009 125.943 751.228C124.539 752.717 124.539 752.8 127.436 753.214C129.015 753.462 145.779 753.958 164.56 754.289C197.034 754.951 198.964 755.117 202.299 756.771C205.196 758.178 208.004 758.674 217.746 759.088C224.329 759.419 230.033 759.915 230.56 760.163C230.999 760.494 231.701 761.735 231.964 762.894C232.93 766.451 236.44 767.279 247.938 766.699L257.855 766.12L258.382 768.85C259.259 773.235 261.453 773.897 274.004 773.318C279.972 773.07 287.608 772.16 290.943 771.415C302.44 768.85 301.562 768.768 302.177 773.153C302.352 775.304 303.142 777.372 303.756 777.786C306.74 779.523 312.884 778.448 323.679 774.394C329.735 772.077 335.44 770.257 336.493 770.422C337.809 770.588 338.424 771.581 338.95 773.98C339.389 775.717 340.179 777.538 340.793 777.869C342.988 779.192 348.254 778.448 356.767 775.552C370.458 771.002 371.862 770.753 375.461 771.829C378.62 772.739 379.147 772.574 393.628 765.789C401.878 761.984 410.04 758.591 411.971 758.26C413.814 757.93 421.187 755.034 428.383 751.724C435.492 748.415 442.865 745.437 444.883 745.188C446.814 744.94 450.5 743.451 453.046 741.879C455.591 740.224 457.785 739.066 457.96 739.149C458.048 739.314 457.697 740.473 457.083 741.714C456.117 743.782 456.205 744.113 458.575 745.85L461.032 747.753L454.186 755.861C444.269 767.444 443.655 769.264 447.955 772.656C449.184 773.649 448.833 774.311 445.059 778.199C442.689 780.599 438.038 786.39 434.79 791.023L428.734 799.379L431.28 801.365C434.439 803.93 434.176 804.84 427.506 816.423C424.697 821.304 421.889 826.682 421.274 828.419C420.309 831.315 420.397 831.811 422.152 833.549C423.907 835.286 424.083 836.114 423.644 840.333C421.099 862.837 421.274 891.38 423.907 895.93C425.224 898.33 424.961 898.743 431.543 885.258C437.335 873.427 446.639 858.038 448.569 857.128C449.359 856.714 452.08 852.991 454.713 848.772C461.208 838.43 468.141 831.398 475.338 828.088C482.008 824.944 483.149 823.703 490.609 810.797C497.016 799.71 499.122 796.98 501.755 796.236C502.809 795.987 504.125 795.243 504.739 794.581C505.266 793.919 506.67 793.423 507.723 793.423C511.322 793.423 512.199 791.272 516.324 772.574L519.133 759.915H522.205C525.715 759.915 527.12 758.012 527.91 752.221C528.173 750.318 528.612 747.091 528.875 745.023C529.577 739.232 530.718 741.3 531.332 749.739C533.439 777.951 536.862 895.186 538.266 988.097L539.319 1055.86L541.425 1057.43C544.322 1059.66 547.13 1059.41 550.729 1056.44C555.643 1052.38 555.731 1050.73 554.239 1021.19C552.396 983.877 547.92 864.574 546.691 818.574C545.55 778.117 546.252 755.944 548.622 753.214C550.114 751.476 550.816 752.469 552.484 758.674C554.502 766.12 556.082 768.602 558.54 768.602C563.191 768.602 567.316 774.725 573.197 790.361C574.601 794.002 576.268 797.642 576.97 798.304C578.375 799.545 578.024 799.71 584.343 795.408C585.396 794.664 586.449 794.167 586.537 794.333C586.625 794.498 589.433 799.793 592.768 806.081C599.438 818.905 602.51 822.711 607.864 824.862C612.428 826.765 618.571 833.135 636.563 854.977C644.374 864.491 651.308 872.434 652.01 872.682C654.029 873.344 652.624 861.761 649.114 847.779C647.358 841.078 645.954 833.962 645.954 832.06C645.954 827.344 643.848 819.815 640.776 813.693L638.319 808.646L640.425 807.239C641.478 806.412 642.443 805.254 642.443 804.592C642.443 802.772 633.93 787.714 630.946 784.156C629.542 782.502 628.401 780.847 628.401 780.599C628.401 780.351 629.63 779.689 631.034 779.275C632.877 778.613 633.667 777.786 633.667 776.545C633.667 773.897 628.05 765.458 620.239 756.44L613.305 748.332L615.938 747.34C617.43 746.76 618.835 745.933 619.186 745.519C619.449 745.023 616.114 740.886 611.726 736.336C600.579 724.588 600.93 723.76 613.481 731.455C621.994 736.667 629.63 740.473 631.824 740.473C632.438 740.473 639.196 743.368 646.744 746.843C660.172 753.131 660.611 753.214 668.773 753.71C675.443 754.124 678.34 754.786 683.254 756.771C691.768 760.329 695.805 761.322 700.369 760.991C703.967 760.743 704.318 760.494 704.757 758.26C705.459 754.951 707.39 755.117 718.01 759.419C726.962 762.976 733.895 764.797 736.353 764.052C737.142 763.804 738.196 762.397 738.634 760.991C740.039 756.606 741.267 756.44 751.887 759.336C767.86 763.804 776.725 763.638 777.427 758.84C777.866 756.109 779.27 755.861 786.818 757.35C790.592 758.095 796.823 758.674 800.86 758.674C807.004 758.674 808.496 758.426 811.129 756.689C812.884 755.613 816.219 754.455 818.501 754.207C820.871 753.876 841.759 753.296 864.929 752.965C895.208 752.469 907.759 751.973 909.689 751.228L912.322 750.153L907.056 747.919C904.16 746.678 894.857 743.286 886.432 740.473C871.95 735.591 841.934 724.67 839.038 723.181C838.336 722.767 837.634 721.609 837.546 720.534C837.546 719.458 837.458 718.134 837.371 717.638C837.195 715.818 821.924 712.426 813.85 712.343H808.32V707.875C808.32 703.573 808.233 703.325 805.6 702.498C804.02 702.001 798.403 701.587 792.961 701.587H783.132L783.57 697.451C783.921 693.562 783.834 693.314 781.64 692.487C780.323 692.073 773.39 691.659 766.281 691.659H753.379V687.854C753.467 684.13 753.379 683.965 749.956 682.807C745.831 681.4 735.212 681.897 727.576 683.8C724.943 684.461 722.486 685.041 722.135 685.041C721.696 685.041 721.432 682.972 721.432 680.49C721.432 676.684 721.169 675.857 719.502 674.947C716.342 673.292 704.406 673.789 697.209 675.774C693.786 676.767 690.802 677.594 690.539 677.594C690.276 677.594 690.276 675.609 690.539 673.21L690.89 668.742L684.922 669.487C676.409 670.397 669.914 671.72 664.824 673.54C662.454 674.368 660.348 675.112 660.348 675.112C660.26 675.112 660.26 673.871 660.348 672.382C660.435 670.066 660.172 669.735 657.978 669.487C654.906 669.156 642.443 672.217 637.88 674.368C634.983 675.774 634.194 675.857 633.579 674.947C633.14 674.368 632.789 673.623 632.789 673.21C632.789 672.299 626.558 672.465 621.38 673.54C618.922 674.037 616.64 674.285 616.377 674.037C615.675 673.292 621.38 672.134 636.3 669.652C651.659 667.17 653.326 666.674 652.537 664.274C651.747 662.04 653.853 661.461 668.422 659.807C685.185 657.904 690.539 656.58 695.893 652.774C700.544 649.465 701.422 649.217 715.728 647.81C731.964 646.155 735.036 644.997 735.65 639.95L735.914 637.468L746.182 636.558C758.382 635.4 767.86 632.918 771.547 629.774L774.267 627.457L772.424 624.644C771.459 623.073 770.581 621.335 770.581 620.921C770.581 620.425 774.618 619.432 779.621 618.688C789.363 617.198 805.073 612.731 807.004 610.828C808.057 609.835 807.969 609.173 806.389 606.029C805.161 603.713 804.81 602.058 805.336 601.562C805.775 601.148 811.041 599.493 817.097 597.756C826.4 595.108 842.198 589.648 843.339 588.572C843.514 588.407 842.198 586.752 840.442 584.932C836.932 581.209 836.493 579.968 838.863 579.968C843.778 579.968 867.474 571.612 868.352 569.626C868.615 568.964 867.386 566.648 865.719 564.497C864.051 562.345 862.472 560.029 862.121 559.367C861.418 557.878 863.525 556.471 869.142 554.734C876.251 552.666 891.259 545.302 893.979 542.655L896.437 540.255L892.663 536.615C890.293 534.381 888.977 532.478 889.328 531.734C889.591 530.989 893.277 528.673 897.578 526.522C905.828 522.385 920.66 513.119 920.66 512.208C920.66 511.96 919.431 510.306 917.939 508.568C914.692 504.845 915.043 503.439 919.519 502.28C923.03 501.37 938.74 491.111 940.32 488.712C941.022 487.719 940.758 486.809 939.266 484.906C938.213 483.5 937.336 482.01 937.336 481.597C937.336 481.183 941.022 478.784 945.498 476.219C954.187 471.338 959.277 467.366 959.277 465.629C959.277 464.967 958.663 463.726 957.96 462.733C956.644 460.996 956.995 460.748 967.351 453.798C973.319 449.827 981.745 445.028 986.045 443.043C994.559 439.237 1012.11 433.032 1023.17 429.97C1031.95 427.571 1033.79 426.578 1032.3 425.089C1031.42 424.262 1027.73 424.014 1017.82 424.096C1006.76 424.179 1001.05 424.758 984.729 427.24C972.53 429.143 962.875 431.129 959.453 432.453L954.011 434.438L951.729 432.783C949.623 431.212 949.272 431.212 944.971 432.453C938.477 434.19 928.822 438.658 923.995 442.132C921.713 443.787 919.519 445.111 919.08 445.111C918.554 445.111 917.413 443.787 916.36 442.215C915.394 440.643 914.078 439.319 913.376 439.319C911.094 439.319 897.315 448.007 892.838 452.309L888.275 456.611L886.87 452.722C885.993 450.571 885.203 448.338 885.027 447.758C884.325 445.359 878.62 447.427 869.493 453.302C865.982 455.618 861.418 459.176 859.224 461.244C857.118 463.312 854.836 464.967 854.222 464.967C853.607 464.967 852.115 463.147 850.887 460.913C849.746 458.679 848.341 456.611 847.903 456.28C846.235 455.37 840.004 459.176 832.456 465.877C828.331 469.6 824.294 473.737 823.591 475.061C821.836 478.205 820.52 477.212 817.975 470.759C816.921 468.028 815.517 465.794 814.99 465.794C812.27 465.794 799.105 476.715 795.068 482.341C793.4 484.575 791.733 486.395 791.206 486.395C790.767 486.395 789.275 484.906 787.959 483.169C786.642 481.349 785.062 479.859 784.448 479.859C782.517 479.859 765.93 496.737 762.594 502.115L759.435 507.079L757.416 503.025C756.275 500.708 754.696 498.309 753.818 497.564C752.326 496.323 752.063 496.323 749.693 497.978C746.446 500.129 733.017 514.69 729.858 519.406C727.137 523.46 725.821 523.543 724.768 519.737C724.241 518 722.837 516.345 720.467 514.856L716.956 512.705L722.924 509.561C731.877 504.845 746.007 495.496 748.113 492.849L749.956 490.449L747.674 488.712C746.446 487.719 744.603 486.395 743.725 485.899C742.057 484.906 742.057 484.823 743.813 483.582C744.778 482.838 749.693 479.694 754.783 476.633C764.438 470.676 775.847 461.492 775.847 459.589C775.847 459.01 773.828 457.19 771.459 455.535C769.001 453.881 767.071 452.226 767.071 451.895C767.071 451.481 768.387 450.654 769.967 449.909C773.214 448.338 790.328 434.273 791.645 431.956C792.874 429.722 792.171 428.564 788.046 425.834C783.746 423.021 783.483 423.517 796.56 412.183C807.969 402.337 811.392 398.531 809.812 397.29C807.618 395.718 804.283 394.312 801.299 393.898C795.682 392.988 796.56 390.754 806.477 381.074C817.097 370.65 822.275 363.7 820.871 361.715C820.432 360.97 817.799 359.729 815.078 359.067C812.445 358.405 809.9 357.578 809.549 357.164C809.198 356.833 810.427 355.179 812.358 353.441C816.219 349.884 822.889 340.783 825.961 334.826C828.331 330.276 828.068 329.945 821.661 328.373C819.642 327.876 817.799 327.132 817.536 326.801C817.272 326.47 820.081 322.581 823.679 318.114C829.823 310.585 836.405 299.829 836.405 297.347C836.405 296.685 835.528 296.023 834.474 295.858C828.419 294.7 827.541 294.369 827.102 293.376C826.839 292.797 827.98 290.894 829.56 289.239C833.772 284.772 844.304 269.548 844.304 267.977C844.304 266.984 843.163 266.487 839.916 266.074C837.195 265.743 835.264 264.998 834.913 264.253C834.65 263.592 835.879 260.944 837.81 258.297C842.461 251.678 847.815 241.584 847.815 239.35C847.815 237.944 847.113 237.282 844.304 236.62C840.179 235.545 840.091 234.966 842.9 231.408C845.621 228.016 852.203 215.523 852.203 213.786C852.203 213.041 851.413 212.296 850.536 212.048C848.078 211.469 847.639 209.566 849.131 206.836C849.833 205.512 852.203 200.134 854.397 194.922C859.488 182.264 864.666 172.749 871.775 162.242C877.304 154.134 878.094 152.562 877.743 149.997C877.655 149.335 878.182 149.17 878.972 149.418C879.849 149.749 880.288 149.418 880.288 148.591C880.288 146.688 877.567 146.936 874.495 149.087C865.894 155.127 844.041 176.224 841.232 181.271C840.706 182.181 838.95 183.505 837.283 184.332C833.86 185.904 825.873 194.757 823.153 199.969C820.871 204.354 820.081 204.85 817.975 203.113C817.009 202.285 815.693 201.872 814.99 202.12C813.06 202.865 808.233 209.897 805.161 216.598C803.669 219.908 802.089 222.886 801.826 223.135C801.562 223.465 799.895 222.39 798.139 220.818L795.068 218.005L793.225 220.073C790.855 222.721 784.624 235.131 784.624 237.117C784.624 238.027 784.185 239.268 783.746 239.93C783.044 241.005 782.429 240.922 779.27 239.268C775.672 237.53 775.496 237.53 773.828 238.854C771.459 240.84 763.648 256.476 762.77 261.11C762.331 263.178 761.805 265.081 761.454 265.329C761.19 265.577 758.908 264.419 756.363 262.764C753.818 261.11 751.185 259.786 750.658 259.786C747.411 259.786 739.863 275.423 739.161 283.613C738.898 286.426 738.459 288.908 738.108 289.157C737.845 289.322 735.212 287.998 732.315 286.178C729.507 284.441 726.874 282.951 726.523 282.951C725.382 282.951 718.01 298.423 716.167 304.711C715.113 308.185 714.411 312.653 714.587 314.556C714.938 318.941 713.27 319.52 708.531 316.542C704.669 314.06 702.826 313.894 701.071 315.797C698.175 319.189 694.225 332.427 694.225 339.128C694.225 341.445 693.874 343.348 693.523 343.348C693.084 343.348 690.451 342.189 687.643 340.7L682.552 338.135L680.621 340.369C677.111 344.506 671.406 362.459 671.406 369.326C671.406 374.373 670.177 374.704 664.122 371.477L659.207 368.912L657.89 370.815C655.872 373.711 653.941 381.736 653.063 390.837C652.537 395.305 652.01 399.111 651.747 399.359C651.483 399.607 649.377 398.614 647.007 397.208C644.638 395.801 642.531 394.643 642.268 394.643C642.005 394.643 640.951 396.38 639.986 398.531C637.529 403.992 635.422 414.83 634.808 425.42C634.545 430.384 634.018 434.355 633.755 434.355C633.491 434.355 631.297 433.032 628.928 431.46C624.1 428.233 621.819 427.819 620.59 430.053C618.747 433.28 616.816 445.359 616.377 456.445L615.851 468.277L613.13 466.622C604.792 461.823 604.265 461.906 602.247 467.449C601.457 469.848 599.438 492.435 599.438 499.881V502.115L596.367 500.46C594.699 499.467 593.032 498.309 592.768 497.895C592.417 497.399 593.119 494.586 594.172 491.525C596.805 484.244 596.367 483.169 590.75 483.169C588.38 483.169 586.098 482.838 585.835 482.341C585.571 481.928 587.327 478.453 589.696 474.647C593.997 467.946 602.247 452.309 603.388 448.668C603.827 447.097 603.476 446.6 601.633 445.938C600.404 445.525 598.21 445.111 596.805 445.111C595.401 445.111 594.085 444.78 593.821 444.366C593.558 443.953 595.313 440.064 597.771 435.679C602.773 426.744 610.672 408.708 611.023 405.564C611.287 403.165 609.356 402.337 603.212 402.172C601.106 402.089 599.438 401.758 599.438 401.262C599.438 400.848 600.843 398.366 602.598 395.801C607.513 388.603 616.991 367.092 615.763 365.934C615.499 365.686 612.515 365.52 609.18 365.603C605.758 365.686 602.861 365.438 602.51 364.941C602.247 364.445 603.914 360.639 606.372 356.42C609.795 350.297 616.991 332.592 616.991 330.193C616.991 329.862 614.007 329.779 610.409 329.945C606.811 330.11 603.827 329.945 603.827 329.614C603.827 329.2 604.968 327.297 606.372 325.394C609.531 320.927 614.359 307.027 614.359 302.146V298.423L607.776 298.836C603.827 299.085 601.194 298.919 601.194 298.423C601.194 298.009 602.51 295.527 604.178 292.962C608.39 286.344 611.901 277.491 612.428 272.361C612.779 268.059 612.779 268.059 610.234 268.059C608.829 268.059 605.406 268.473 602.598 268.969C599.877 269.383 597.244 269.714 596.805 269.548C596.367 269.383 597.42 266.405 599.087 262.764C603.212 253.994 606.46 241.667 606.46 234.635C606.46 230.167 606.196 229.091 605.231 229.422C604.529 229.671 601.194 230.167 597.683 230.498L591.452 231.077L592.944 227.85C596.805 219.66 599.526 210.724 599.702 205.429L599.877 199.803L596.805 199.886C595.138 199.886 591.452 200.217 588.731 200.548L583.728 201.21L585.484 195.584C587.327 189.462 589.258 167.372 588.38 162.987C587.766 160.256 586.098 159.925 579.954 161.249C578.199 161.663 576.532 161.828 576.356 161.58C576.093 161.415 576.532 159.264 577.234 156.947C578.726 151.817 579.691 131.63 578.55 129.976C577.848 129.066 576.883 129.148 572.67 130.637C569.861 131.63 567.404 132.209 567.141 131.961C566.877 131.713 567.141 130.224 567.755 128.652C568.984 125.425 570.476 113.594 570.476 106.81V102.425L566.439 103.004C562.489 103.501 562.314 103.501 562.928 101.598C563.191 100.522 563.893 96.1372 564.42 91.835C565.385 83.6443 564.947 78.2666 563.191 76.1983C561.524 74.2954 562.05 53.2808 564.332 31.439L566.351 11.9964L564.595 6.20497L562.84 0.413563L561.699 5.37763ZM588.029 516.593C588.029 519.489 587.766 522.468 587.502 523.212C586.537 525.529 577.497 524.288 577.497 521.888C577.497 520.234 585.396 511.298 586.8 511.298C587.766 511.298 588.029 512.539 588.029 516.593ZM489.907 528.424C494.559 534.133 503.774 546.874 503.774 547.784C503.774 548.115 502.194 548.612 500.263 548.943C498.069 549.273 496.753 549.935 496.753 550.68C496.753 553.079 499.473 557.878 505.88 566.979C514.218 578.892 516.061 582.45 516.061 586.587C516.061 588.49 516.939 591.633 518.168 593.867C522.556 601.975 527.646 620.839 530.981 640.86C533.088 653.436 534.141 672.961 532.912 675.94C532.122 677.843 531.771 677.429 527.734 669.735C518.343 652.195 511.848 636.641 508.689 624.479C505.09 610.58 502.896 599.824 502.896 596.184C502.896 591.964 501.843 591.137 498.508 592.792C497.016 593.536 495.612 594.033 495.524 593.867C495.348 593.702 494.822 584.353 494.208 573.018C493.593 561.766 492.716 551.59 492.277 550.432C491.575 548.694 491.048 548.446 489.117 548.943C487.801 549.191 486.309 549.522 485.87 549.604C484.29 549.853 483.588 543.234 484.115 533.388C484.466 528.093 484.992 523.709 485.343 523.709C485.694 523.709 487.713 525.86 489.907 528.424ZM587.678 535.043C588.38 540.504 587.327 540.752 581.183 536.45C581.008 536.367 581.973 534.795 583.377 532.975C584.694 531.155 586.098 529.914 586.449 530.162C586.8 530.493 587.327 532.727 587.678 535.043ZM369.229 539.511C372.038 541.165 372.126 541.414 370.985 543.068C370.283 543.978 369.142 544.806 368.527 544.806C367.474 544.806 364.402 540.173 364.227 538.353C364.227 537.277 366.158 537.773 369.229 539.511ZM699.403 540.255C698.701 542.076 697.911 542.737 696.419 542.737C694.664 542.737 691.68 540.586 692.558 539.924C693.962 538.849 696.77 537.856 698.35 537.773C700.105 537.773 700.193 538.022 699.403 540.255ZM578.375 565.655C578.375 578.396 578.287 579.637 577.497 579.472C577.234 579.389 575.829 579.058 574.25 578.81L571.529 578.23L571.002 585.511C568.984 611.655 568.72 613.062 564.244 626.961C558.803 643.425 554.59 653.684 548.096 666.343C543.093 676.105 541.338 678.091 542.04 673.21C544.322 657.573 551.518 623.817 555.292 611.572C556.258 608.346 556.346 606.939 555.643 606.112C553.976 604.292 559.944 586.669 565.122 577.9C568.106 572.853 570.827 565.407 570.037 564.248C569.774 563.835 568.72 563.421 567.755 563.421C565.034 563.421 565.736 560.691 569.598 556.14C577.146 547.122 578.375 548.446 578.375 565.655ZM401.088 569.626C401.088 570.288 400.474 570.867 399.772 570.867C399.07 570.867 398.455 570.288 398.455 569.626C398.455 568.964 399.07 568.385 399.772 568.385C400.474 568.385 401.088 568.964 401.088 569.626ZM432.684 596.184C432.684 596.846 432.333 597.342 431.806 597.342C431.367 597.342 430.929 596.598 430.929 595.605C430.929 594.695 431.367 594.198 431.806 594.446C432.333 594.695 432.684 595.522 432.684 596.184ZM459.277 616.95C474.724 624.396 509.128 655.753 519.133 671.389C520.8 674.037 522.205 676.602 522.205 677.015C522.205 678.091 515.184 673.127 504.739 664.688C491.75 654.181 476.391 638.958 468.668 629.029L462.173 620.508L459.803 622.659L457.346 624.81L456.03 621.749C454.45 618.191 454.186 615.544 455.503 615.544C456.03 615.544 457.697 616.123 459.277 616.95ZM596.805 635.648C596.805 637.468 592.417 642.681 585.308 649.465C577.585 656.828 554.766 676.271 554.239 675.857C553.625 675.195 560.471 666.26 564.947 661.958C567.492 659.476 569.598 657.076 569.598 656.663C569.598 655.422 584.167 642.267 589.872 638.296C595.577 634.324 596.805 633.911 596.805 635.648ZM605.319 677.264C605.055 677.512 604.265 677.594 603.651 677.346C602.949 677.098 603.212 676.85 604.178 676.85C605.143 676.767 605.67 677.015 605.319 677.264Z" fill="#0DC176"/>
</svg>
